<svg width="200" height="32" viewBox="0 0 200 32" fill="none" xmlns="http://www.w3.org/2000/svg">
<path d="M12.127 22.111L24.3743 9.91765V6.4604L20.8986 3L0 3.00315V10.0343L12.127 22.111Z" fill="#FFFFFF"/>
<path d="M48.4141 7.66103V11.0553L48.411 11.0426C48.411 12.6499 49.3828 13.5418 50.706 13.4536C52.1209 13.4536 53.0041 12.5617 53.0041 11.0426V8.98784H50.706V9.88288H52.2096V11.1435C52.2096 12.1268 51.6778 12.6625 50.7946 12.6625C49.9114 12.6625 49.3828 12.1268 49.3828 11.0553V7.66103C49.3828 6.59266 49.9146 6.0569 50.7091 6.0569C51.5037 6.0569 52.0355 6.50127 52.0355 7.57279H53.0073C52.925 6.0569 52.1209 5.16186 50.7091 5.16186C49.2973 5.16186 48.4141 6.0569 48.4141 7.66103Z" fill="#FFFFFF"/>
<path d="M40.834 5.25029V13.3781H39.9509V7.12861C39.7736 7.75892 38.2731 11.503 38.2731 11.503H37.39C37.39 11.503 36.2032 8.42458 35.8009 7.43169V13.3781H34.8196V5.25029H35.7914L37.8236 10.34H37.9123C38.0864 9.89567 39.9414 5.25029 39.9414 5.25029H40.834Z" fill="#FFFFFF"/>
<path d="M44.2625 13.3781H45.2343V5.25029H44.2625V13.3781Z" fill="#FFFFFF"/>
<path d="M60.5115 5.25029V13.3781H59.5397V9.71603H56.9788V13.3781H56.007V5.25029H56.9788V8.82414H59.5397V5.25029H60.5115Z" fill="#FFFFFF"/>
<path d="M65.8963 6.14533H67.574V5.25029H63.1613V6.14533H64.9245V13.3781H65.8963V6.14533Z" fill="#FFFFFF"/>
<path d="M71.6382 10.6079L69.6946 5.25029H70.6664L71.7237 8.19698C71.8129 8.37782 71.8797 8.60337 71.9466 8.82942C72.0126 9.05248 72.0788 9.27603 72.1668 9.4576C72.2459 9.25801 72.3073 9.05904 72.3666 8.86713C72.4401 8.62883 72.5104 8.4012 72.6068 8.19698L73.6673 5.34168H74.5505L72.5214 10.6993V13.4664H71.6319V10.6079H71.6382Z" fill="#FFFFFF"/>
<path fill-rule="evenodd" clip-rule="evenodd" d="M37.024 27.2606C38.4358 27.2606 39.319 26.3687 39.319 24.9411C39.319 23.9578 38.8758 23.2424 38.075 23.0659C38.6068 22.798 38.9581 22.1708 38.9581 21.279C38.9581 19.9395 38.1636 19.1359 36.8404 19.1359H34.8082V27.2606H37.024ZM36.8467 23.5102C37.7141 23.5102 38.3472 23.9578 38.3472 24.9411C38.3472 25.8329 37.9072 26.2805 36.9354 26.3687H35.7863V23.5102H36.8467ZM35.7863 22.6184V20.0183H36.8467C37.6413 20.0183 38.0813 20.3871 38.0813 21.279C38.0813 22.1708 37.6413 22.6184 36.8467 22.6184H35.7863Z" fill="#FFFFFF"/>
<path d="M42.145 24.7612V19.0475H43.1168V24.7612C43.1168 25.921 43.6455 26.4568 44.44 26.4568C45.2346 26.4568 45.7632 25.921 45.7632 24.7612V19.0475H46.735V24.7612C46.735 26.4568 45.8518 27.3518 44.44 27.3518C43.1168 27.3518 42.145 26.3685 42.145 24.7612Z" fill="#FFFFFF"/>
<path d="M50.9737 27.1722H50.0019V19.0475H50.9737V27.1722Z" fill="#FFFFFF"/>
<path d="M58.1283 26.2803V27.1722H54.3297V19.0475H55.3015V26.2803H58.1283Z" fill="#FFFFFF"/>
<path fill-rule="evenodd" clip-rule="evenodd" d="M62.7185 19.032H60.7749L60.7781 27.2449H62.7185C64.3076 27.2449 65.1908 26.2648 65.1908 24.7457V21.5312C65.1908 19.9239 64.219 19.032 62.7185 19.032ZM64.219 24.6733C64.219 25.7448 63.6904 26.2805 62.7185 26.2805H61.7467V19.9396H62.7185C63.6904 19.9396 64.219 20.4754 64.219 21.5469V24.6733Z" fill="#FFFFFF"/>
<path d="M68.3677 27.1722H69.2509V19.0475H68.3677V27.1722Z" fill="#FFFFFF"/>
<path d="M77.2891 27.1722V19.0475H76.4218V22.8136C76.407 23.677 76.4366 24.5406 76.5104 25.401C76.349 24.9409 75.9786 24.0458 75.7159 23.5101L73.6836 19.0475H72.7118V27.1722H73.6836V23.3336C73.6984 22.4985 73.6688 21.6632 73.595 20.8312C73.7722 21.2788 74.1268 22.1675 74.3895 22.7978L76.3173 27.1722H77.2891Z" fill="#FFFFFF"/>
<path d="M80.5556 24.8501V21.459C80.5556 19.8517 81.4388 18.9599 82.8506 18.9599C84.2624 18.9599 85.0665 19.8517 85.1456 21.3676H84.177C84.0883 20.2961 83.6452 19.8517 82.8506 19.8517C82.0561 19.8517 81.5274 20.3875 81.5274 21.459V24.8501C81.5274 25.9216 82.0561 26.4574 82.9393 26.4574C83.8224 26.4574 84.3511 25.9216 84.3511 24.9415V23.6809H82.9361V22.7984H85.1519V24.8501C85.1519 26.3691 84.2688 27.261 82.8569 27.261C81.4451 27.3524 80.562 26.4574 80.562 24.8501H80.5556Z" fill="#FFFFFF"/>
<path d="M88.6785 25.0292H87.7098C87.8048 26.4568 88.688 27.3519 89.9257 27.3519C90.2273 27.3692 90.5292 27.3236 90.8121 27.2181C91.0951 27.1126 91.3528 26.9495 91.5688 26.7392C91.7848 26.5289 91.9543 26.276 92.0666 25.9968C92.1788 25.7175 92.2313 25.418 92.2207 25.1174C92.2207 23.747 91.1851 23.1281 90.2497 22.569C89.4792 22.1085 88.7766 21.6885 88.7766 20.9227C88.7766 20.2073 89.2198 19.7598 90.0143 19.7598C90.7202 19.7598 91.2489 20.2073 91.2489 21.0992H92.2207C92.1225 19.7598 91.328 18.8679 90.0048 18.8679C89.728 18.8563 89.4517 18.9011 89.1929 18.9995C88.9341 19.0979 88.6982 19.2479 88.4996 19.4403C88.301 19.6327 88.144 19.8634 88.0382 20.1183C87.9323 20.3732 87.8798 20.6469 87.8839 20.9227C87.8839 22.2188 88.8793 22.8182 89.7998 23.3724C90.5916 23.8492 91.328 24.2926 91.328 25.1174C91.328 25.9211 90.888 26.4568 90.0048 26.4568C89.2103 26.4568 88.6785 25.9211 88.6785 25.0292Z" fill="#FFFFFF"/>
<path d="M12.1713 25.4892L21.3924 16.3087L24.3743 19.2806V25.5144L20.8796 28.9937V29H0V13.4503L12.1302 25.527L12.1713 25.4892Z" fill="#FFFFFF"/>
</svg>
