<svg width="70" height="71" viewBox="0 0 70 71" fill="none" xmlns="http://www.w3.org/2000/svg">
<path d="M63.4804 64.376C63.3563 65.3641 63.0422 66.3178 62.5559 67.1823C62.0697 68.0469 61.4208 68.8056 60.6463 69.4149C59.8718 70.0242 58.987 70.4723 58.0423 70.7335C57.0977 70.9947 56.1117 71.064 55.1407 70.9373L6.50659 64.602C5.53528 64.476 4.59791 64.1564 3.74802 63.6615C2.89813 63.1667 2.15238 62.5063 1.55339 61.718C0.954398 60.9298 0.5139 60.0291 0.257064 59.0676C0.000228744 58.106 -0.0679104 57.1024 0.0565404 56.114L6.28198 6.6217C6.40615 5.63364 6.72038 4.68015 7.20672 3.8157C7.69306 2.95125 8.34198 2.19276 9.11642 1.58357C9.89087 0.97438 10.7757 0.526415 11.7202 0.265266C12.6648 0.00411663 13.6507 -0.0651015 14.6216 0.0615645L63.2558 6.39686C64.2267 6.52322 65.1637 6.84299 66.0132 7.33789C66.8628 7.8328 67.6082 8.49315 68.2069 9.28123C68.8056 10.0693 69.2459 10.9697 69.5027 11.931C69.7595 12.8923 69.8277 13.8956 69.7034 14.8837L63.4804 64.376Z" fill="#1D4354"/>
<path d="M56.2063 3.86328H13.5584C8.16509 3.86328 3.79297 8.31255 3.79297 13.801V57.2002C3.79297 62.6887 8.16509 67.138 13.5584 67.138H56.2063C61.5996 67.138 65.9717 62.6887 65.9717 57.2002V13.801C65.9717 8.31255 61.5996 3.86328 56.2063 3.86328Z" fill="#6BB64A"/>
<path d="M31.2107 41.7141C29.3919 43.2526 27.0845 44.0638 24.7203 43.9961H14.507V23.2089H24.7216C27.0957 23.1691 29.4033 24.0078 31.2156 25.5691V38.3415V19.4275C29.1811 18.4707 26.9627 17.9873 24.7216 18.0127H9.39844V49.1985H24.7203C26.6337 49.2069 28.5316 48.8505 30.3159 48.1475C30.4979 48.0864 30.6753 48.0121 30.8469 47.9252L30.8713 47.914L31.0788 47.7786L31.2168 47.6854L31.2107 41.7141Z" fill="white"/>
<path d="M31.2031 19.4531V25.5921L31.2141 25.5996V38.3758L36.3214 35.3945V28.4803L41.3079 31.4368L46.5372 28.5312L31.2141 19.4631L31.2031 19.4531Z" fill="white"/>
<path d="M31.2109 41.7456C31.2109 41.7456 31.2109 41.7456 31.2109 41.7518V47.7219L56.7548 30.8141V52.9852H61.8621V21.7969L31.2109 41.7456Z" fill="white"/>
</svg>
