<svg xmlns="http://www.w3.org/2000/svg" version="1.1" xmlns:xlink="http://www.w3.org/1999/xlink" xmlns:svgjs="http://svgjs.dev/svgjs" viewBox="0 0 800 800" opacity="0.23"><rect width="100%" height="100%" fill="#e5e7eb"/><g stroke-width="2" stroke="#000000" fill="none"><path d="M4302.6837578582035 -2569.822671773428C4677.643800819549 -1257.5228031518805 3291.0267282324085 749.8579794336738 2342.704574845793 2293.576509589858C1394.3824214591787 3837.295039746041 911.5946039227383 4873.009853886304 -249.26257839755135 4840.026272976258C-1410.119760717841 4807.04269206621 -2683.334024646365 3533.8566281332205 -3229.4099002916028 2135.2553212216344C-3775.4857759368406 736.6540143100492 -3656.323920853628 -593.94371248785 -2870.4267814946843 -1873.26000019935C-2084.529642135741 -3152.5762879108506 -951.5016604005223 -3860.345636548966 542.89636863133 -4005.4628597935634C2037.2943976631832 -4150.580083038161 3927.723714896856 -3882.1225403949747 4302.6837578582035 -2569.822671773428C4677.643800819549 -1257.5228031518805 3291.0267282324085 749.8579794336738 2342.704574845793 2293.576509589858 "></path><path d="M4251.99959046592 -2531.2537907029373C4622.090022479715 -1235.9967775180335 3253.480963822277 745.3141247742014 2317.4746825575676 2268.9843623309544C1381.4684012928565 3792.6545998877064 904.9505554127336 4814.918572285889 -240.83055960469528 4782.363349569479C-1386.6116746221246 4749.80812685307 -2643.2906883697583 3493.1569468672615 -3182.274669526097 2112.719293292189C-3721.2586506824355 732.2816397171173 -3603.6443521587453 -581.0355971223676 -2827.953669155113 -1843.737387590861C-2052.26298615148 -3106.439178059355 -933.9496535297058 -3805.0167169748975 541.0406088913442 -3948.2493009565783C2016.0308713123932 -4091.481884938259 3881.909158452123 -3826.510803887841 4251.99959046592 -2531.2537907029373C4622.090022479715 -1235.9967775180335 3253.480963822277 745.3141247742014 2317.4746825575676 2268.9843623309544 "></path><path d="M4201.315392556057 -2492.683963587526C4566.536213622305 -1214.469805839266 3215.935168894569 740.771216159651 2292.244759751762 2244.393161116972C1368.5543506089562 3748.015106074293 898.3064763851498 4756.828236730395 -232.3985713294178 4724.701372207621C-1363.1036190439859 4692.574507684849 -2603.24738261073 3452.4582116462216 -3135.1394692781696 2090.1842114076644C-3667.031555945609 727.9102111691072 -3550.9648139814403 -568.1265357119632 -2785.480587333119 -1814.2138289374507C-2019.9963606847975 -3060.301122162938 -916.3976771764674 -3749.6868513559075 539.1848186337793 -3891.0347960746712C1994.7673144440241 -4032.382740793435 3836.0945714898107 -3770.898121335786 4201.315392556057 -2492.683963587526C4566.536213622305 -1214.469805839266 3215.935168894569 740.771216159651 2292.244759751762 2244.393161116972 "></path><path d="M4150.631103093461 -2454.1155707982857C4510.982313212158 -1192.9442684866694 3178.389282414125 736.2268732189286 2267.014745393223 2219.8005255768194C1355.6402083723206 3703.374177934709 891.6623058048326 4698.736466848728 -223.96667460687513 4667.037960519592C-1339.5956550185815 4635.339454190456 -2563.2041684044357 3411.7580420990125 -3088.004360582976 2067.647695196968C-3612.8045527615163 723.5373482949253 -3498.28536735687 -555.2189086277308 -2743.00759706386 -1784.6917046102117C-1987.7298267708493 -3014.1645005926925 -898.8457923759634 -3694.358420063089 537.3289368234791 -3833.821725518936C1973.5036660229216 -3973.285030974783 3790.279892974764 -3715.2868731099024 4150.631103093461 -2454.1155707982857C4510.982313212158 -1192.9442684866694 3178.389282414125 736.2268732189286 2267.014745393223 2219.8005255768194 "></path><path d="M4099.946935701177 -2415.546201446546C4455.428534872324 -1171.417754571573 3140.843518003995 731.6835068407063 2241.7848531049967 2195.208866599166C1342.7261882059984 3658.7342263576247 885.018257294827 4640.645673529563 -215.5346558140186 4609.375525394065C-1316.087568922865 4578.105377258566 -2523.160832127829 3371.0588491143026 -3040.8691298174704 2045.1121555487725C-3558.577427507111 719.1654619832443 -3445.6057986619876 -542.3103049809984 -2700.5344847242877 -1755.1686037204727C-1955.4631707865883 -2968.026902459947 -881.2937855051468 -3639.029012207771 535.4731770834924 -3776.607678400701C1952.2401396721325 -3914.186344593631 3744.46533653003 -3659.6746483215193 4099.946935701177 -2415.546201446546C4455.428534872324 -1171.417754571573 3140.843518003995 731.6835068407063 2241.7848531049967 2195.208866599166 "></path><path d="M4049.2626462385806 -2376.976832094806C4399.874634462178 -1149.891240656476 3103.297631523551 727.1401404624849 2216.554838746458 2170.6172076215125C1329.8120459693628 3614.094274780541 878.3740867145098 4582.554880210399 -207.10275909147595 4551.713090268537C-1292.5796048974607 4520.871300326675 -2483.1176179215354 3330.3596561295926 -2993.734021122277 2022.576615900577C-3504.350424323019 714.7935756715615 -3392.926352037417 -529.4017013342655 -2658.061494455029 -1725.6455028307337C-1923.1966368726403 -2921.8893043272014 -863.7419007046433 -3583.6996043524523 533.6172952731931 -3719.393631282466C1930.976491251029 -3855.087658212479 3698.6506580149835 -3604.0624235331356 4049.2626462385806 -2376.976832094806C4399.874634462178 -1149.891240656476 3103.297631523551 727.1401404624849 2216.554838746458 2170.6172076215125 "></path><path d="M3998.578509363875 -2338.4082256825195C4344.320886639922 -1128.365489680833 3065.7518976309993 722.5960111448085 2191.3249769758086 2146.024785704406C1316.8980563206187 3569.4535602640035 871.7300687220823 4524.463323951779 -198.6707097810413 4494.049892203555C-1269.0714882841662 4463.636460455329 -2443.07425112735 3289.6597002054295 -2946.598759839193 2000.0403133129284C-3450.123268551036 710.4209264204273 -3340.2467528249563 -516.4938606269866 -2615.5883515978785 -1696.1231648804478C-1890.9299503708012 -2875.752469133909 -846.1898633162486 -3528.3709594365873 531.7615660507836 -3662.1803471036837C1909.7129954178172 -3795.9897347707797 3652.8361320878284 -3548.4509616842056 3998.578509363875 -2338.4082256825195C4344.320886639922 -1128.365489680833 3065.7518976309993 722.5960111448085 2191.3249769758086 2146.024785704406 "></path><path d="M3947.8942809364344 -2299.8393446120294C4288.7670472649315 -1106.8394640469864 3028.2060721857115 718.0521564853361 2166.095023652427 2121.4326384455026C1303.9839751191403 3524.813120405669 865.0859591769213 4466.372042351362 -190.23875202334239 4436.386968796774C-1245.5634632236056 4406.401895242187 -2403.0309758859003 3248.9600189394687 -2899.4635901088436 1977.504285383482C-3395.896204331787 706.0485518274945 -3287.56724516523 -503.58574526150414 -2573.1153002934634 -1666.6005522719588C-1858.6633554216967 -2829.615359282414 -828.6379174805884 -3473.042039862519 529.905745275641 -3604.966788266698C1888.44940803187 -3736.891536670878 3607.021514607938 -3492.839225177072 3947.8942809364344 -2299.8393446120294C4288.7670472649315 -1106.8394640469864 3028.2060721857115 718.0521564853361 2166.095023652427 2121.4326384455026 "></path><path d="M3897.2100219914164 -2261.2699752602894C4233.213177372364 -1085.31295013189 2990.6602162228473 713.5087901071129 2140.865039811465 2096.8409794678482C1291.0698634000828 3480.1731688285836 858.4418191141813 4408.281249032196 -181.80682478322115 4378.724533671246C-1222.055468680623 4349.167818310296 -2362.9877311620276 3208.2608259547587 -2852.3284508960724 1954.9687457352857C-3341.6691706301162 701.6766655158126 -3234.8877680230817 -490.6771416147717 -2530.642279506626 -1637.0774513822203C-1826.39679099017 -2783.4777611496684 -811.0860021625062 -3417.7126320072 528.0498939829199 -3547.752741148463C1867.1857901283465 -3677.7928502897257 3561.2068666104697 -3437.227000388689 3897.2100219914164 -2261.2699752602894C4233.213177372364 -1085.31295013189 2990.6602162228473 713.5087901071129 2140.865039811465 2096.8409794678482 "></path><path d="M3846.525854599132 -2222.7006059085497C4177.65939903253 -1063.7864362167934 2953.1144518127157 708.9654237288914 2115.6351475232386 2072.2493204901957C1278.1558432337606 3435.5332172515 851.7977706041765 4350.190455713033 -173.37480599036508 4321.062098545718C-1198.5473825849067 4291.933741378403 -2322.9443948854214 3167.561632970049 -2805.1932201305663 1932.4332060870902C-3287.4420453757116 697.3047792041316 -3182.2081993281986 -477.76853796803925 -2488.169167167054 -1607.5543504924813C-1794.1301350059093 -2737.340163016923 -793.5339952916897 -3362.383224151882 526.1941342429336 -3490.538694030228C1845.9222637775565 -3618.6941639085735 3515.3923101657356 -3381.614775600305 3846.525854599132 -2222.7006059085497C4177.65939903253 -1063.7864362167934 2953.1144518127157 708.9654237288914 2115.6351475232386 2072.2493204901957 "></path><path d="M3795.841656689271 -2184.1317553556373C4122.105590175118 -1042.2604411005254 2915.568656885008 704.4215385518401 2090.405224717433 2047.6571427137142C1265.2417925498603 3390.8927468755874 845.1536915765937 4292.099143595038 -164.94281771508759 4263.39914462136C-1175.039327006768 4234.6991456476835 -2282.9010891263924 3126.86192118651 -2758.0580198826383 1909.8971476400657C-3233.2149506388846 692.9323740936215 -3129.528661150894 -464.8604531201354 -2445.69608534506 -1578.0317684015704C-1761.8635095392265 -2691.203083683006 -775.9820189384513 -3307.0543350953917 524.3383439853678 -3433.325165710821C1824.6587069091875 -3559.59599632625 3469.5777232034234 -3326.00306961075 3795.841656689271 -2184.1317553556373C4122.105590175118 -1042.2604411005254 2915.568656885008 704.4215385518401 2090.405224717433 2047.6571427137142 "></path><path d="M3745.157397744253 -2145.5626301445227C4066.5517202825495 -1020.7341713260539 2878.022800922142 699.8779280329927 2065.1752408764733 2023.0652395954357C1252.3276808308028 3346.2525511578788 838.5095515138537 4234.0081061352475 -156.51089047496635 4205.736465355207C-1151.5313324637855 4177.464824575167 -2242.8578444025206 3086.1624840611757 -2710.922880669867 1887.3613638512452C-3178.987916937214 688.5602436413137 -3076.849184008746 -451.9520936140275 -2403.223064558223 -1548.5089116524564C-1729.5969451077 -2645.0657296908853 -758.4301036203697 -3251.7251713806986 522.4824926926472 -3376.1113627332106C1803.395089005663 -3500.4975540857226 3423.763075205956 -3270.3910889629915 3745.157397744253 -2145.5626301445227C4066.5517202825495 -1020.7341713260539 2878.022800922142 699.8779280329927 2065.1752408764733 2023.0652395954357 "></path><path d="M3694.4731693168123 -2106.9935354509857C4010.997880907559 -999.2079320691605 2840.476975476856 695.3342869965672 2039.9452875530897 1998.4733059595792C1239.4135996293244 3301.6123249225902 831.8654419686927 4175.917038157878 -148.07893271726653 4148.073755571475C-1128.0233074032253 4120.230472985072 -2202.81456916107 3045.4630164182618 -2663.7877109395176 1864.8255495448457C-3124.760852717965 684.1880826714296 -3024.169676349019 -439.04376462549817 -2360.750013253807 -1518.986085420921C-1697.3303501585954 -2598.928406216343 -740.8781577847094 -3196.396038183583 520.6266719175042 -3318.8975902731786C1782.1315016197168 -3441.399142362774 3377.9484577260655 -3214.7791388328114 3694.4731693168123 -2106.9935354509857C4010.997880907559 -999.2079320691605 2840.476975476856 695.3342869965672 2039.9452875530897 1998.4733059595792 "></path><path d="M3643.7889714069506 -2068.424166099246C3955.444072050148 -977.681418154064 2802.931180549146 690.7909206183449 2014.715364747285 1973.8816469819267C1226.4995489454232 3256.9723733455066 825.2213629411094 4117.826244838712 -139.64694444198904 4090.4113204459472C-1104.515251825087 4062.9963960531804 -2162.7712634020418 3004.7638234335527 -2616.6525106915897 1842.2900098966502C-3070.5337579811385 679.8161963597477 -2971.4901381717145 -426.1351609787657 -2318.276931431814 -1489.462984531182C-1665.0637246919127 -2552.7908080835978 -723.326181431471 -3141.066630328265 518.7708816599388 -3261.6835431549434C1760.8679447513487 -3382.300455981622 3332.1338707637533 -3159.166914044428 3643.7889714069506 -2068.424166099246C3955.444072050148 -977.681418154064 2802.931180549146 690.7909206183449 2014.715364747285 1973.8816469819267 "></path><path d="M3593.104804014666 -2029.855285028756C3899.890293710314 -956.1553925202174 2765.3854161390163 686.2470659588726 1989.4854724590587 1949.2894997230223C1213.585528779101 3212.331933487172 818.5773144311038 4059.7349632382966 -131.21492564913297 4032.7483970391677C-1081.0071657293702 4005.761830840038 -2122.7279271254347 2964.064142167592 -2569.517279926084 1819.7539819672038C-3016.3066327267334 675.4438217668157 -2918.810569476832 -413.2270456132833 -2275.8038190922416 -1459.940371922693C-1632.797068707652 -2506.653698232102 -705.7741745606545 -3085.7377107541965 516.9151219199521 -3204.4699843179583C1739.6044184005586 -3323.2022578817196 3286.319314319019 -3103.5551775372946 3593.104804014666 -2029.855285028756C3899.890293710314 -956.1553925202174 2765.3854161390163 686.2470659588726 1989.4854724590587 1949.2894997230223 "></path><path d="M3542.420758692695 -1991.2859156770162C3844.3366374407924 -934.6288786051209 2727.8397737991972 681.7036995806502 1964.2557022411447 1924.697840745369C1200.6716306830913 3167.6919819100885 811.9333879914116 4001.644169919132 -122.78278478596485 3975.08596191364C-1057.4989575633408 3948.527753908148 -2082.684468778516 2923.364949182882 -2522.381927090266 1797.2184423190083C-2962.0793854020158 671.0719354551338 -2866.130878711637 -400.31844196655084 -2233.3305846823578 -1430.417271032954C-1600.5302906530785 -2460.5161000993567 -688.2220456195255 -3030.408302898878 515.0594842502778 -3147.255937199723C1718.3410141200811 -3264.103571500568 3240.5048799445976 -3047.942952748911 3542.420758692695 -1991.2859156770162C3844.3366374407924 -934.6288786051209 2727.8397737991972 681.7036995806502 1964.2557022411447 1924.697840745369 "></path><path d="M3491.7365913004105 -1952.7168209834795C3788.7828591009584 -913.102639348228 2690.2940093890675 677.1600585442247 1939.0258099529183 1900.1059071095124C1187.7576105167682 3123.0517556748 805.2893394814064 3943.553101941762 -114.35076599310923 3917.4232521299073C-1033.9908714676242 3891.2934023180524 -2042.6411325019094 2882.665481539969 -2475.24669632476 1774.6826280126088C-2907.8522601476107 666.6997744852488 -2813.4513100167537 -387.41011297802197 -2190.8574723427855 -1400.894444801418C-1568.2636346688178 -2414.3787766248142 -670.670038748709 -2975.079169701763 513.2037245102911 -3090.042164739691C1697.077487769291 -3205.0051597776187 3194.6903234998645 -2992.331002618731 3491.7365913004105 -1952.7168209834795C3788.7828591009584 -913.102639348228 2690.2940093890675 677.1600585442247 1939.0258099529183 1900.1059071095124 "></path><path d="M3441.052393390549 -1914.1476957723644C3733.229050243546 -891.576369573756 2652.7482144613577 672.6164480253774 1913.7958871471137 1875.514003991234C1174.843559832867 3078.4115599570914 798.6452604538226 3885.4620644819724 -105.91877771783129 3859.7605728637536C-1010.4828158894857 3834.0590812455357 -2002.597826742881 2841.966044414634 -2428.1114960768323 1752.1468442237883C-2853.625165410784 662.3276440329423 -2760.7717718394492 -374.50175347191407 -2148.3843905207923 -1371.3715880523039C-1535.997009202135 -2368.2414226326937 -653.1180623954706 -2919.75000598707 511.34793425272574 -3032.828361762081C1675.813930900923 -3145.906717537092 3148.8757365375523 -2936.7190219709723 3441.052393390549 -1914.1476957723644C3733.229050243546 -891.576369573756 2652.7482144613577 672.6164480253774 1913.7958871471137 1875.514003991234 "></path><path d="M3390.368164963109 -1875.5788147018745C3677.675210868556 -870.0503439399099 2615.2023890160717 668.072593365905 1888.5659338237301 1850.9218567323305C1161.9294786313894 3033.771120098757 792.0011509086617 3827.370782881556 -97.48681996013192 3802.097649456975C-986.9747908289253 3776.824516032394 -1962.5545515014305 2801.266363148674 -2380.976326346483 1729.610816294342C-2799.3981011915353 657.9552694400099 -2708.092264179723 -361.5936381064321 -2105.9113392163767 -1341.848975443815C-1503.7304142530304 -2322.1043127811986 -635.5661165598103 -2864.4210864130014 509.49211347758273 -2975.6148029250953C1654.5503435149758 -3086.8085194371897 3103.061119057662 -2881.107285463839 3390.368164963109 -1875.5788147018745C3677.675210868556 -870.0503439399099 2615.2023890160717 668.072593365905 1888.5659338237301 1850.9218567323305 "></path><path d="M3339.683936535668 -1837.0092317270878C3622.1213714935666 -848.5236164017665 2577.656563570784 663.5294406107287 1863.3359805003474 1826.330411377724C1149.01539742991 2989.1313821447193 785.3570413635002 3769.280203185437 -89.0548622024321 3744.435427954493C-963.4667657683647 3719.5906527235484 -1922.5112762599801 2760.56738378701 -2333.841156616133 1707.0754902691933C-2745.1710369722864 653.5835967513749 -2655.412756519996 -348.68482083665276 -2063.438287911961 -1312.3256609310297C-1471.4638193039257 -2275.9665010254066 -618.0141707241501 -2809.091464934636 507.63629270243973 -2918.4005421838133C1633.2867561290304 -3027.7096194329906 3057.2465015777716 -2825.4948470524087 3339.683936535668 -1837.0092317270878C3622.1213714935666 -848.5236164017665 2577.656563570784 663.5294406107287 1863.3359805003474 1826.330411377724 "></path><path d="M3288.9997081082292 -1798.4403506565977C3566.5675321185763 -826.99759076792 2540.110738125498 658.9855859512568 1838.1060271769647 1801.7382641188206C1136.1013162284312 2944.490942286385 778.7129318183393 3711.1889215850224 -80.62290444473274 3686.7725045477146C-939.9587407078043 3662.3560875104076 -1882.4680010185298 2719.86770252105 -2286.7059868857837 1684.539462339747C-2690.9439727530375 649.2112221584434 -2602.7332488602697 -335.77670547116986 -2020.9652366075454 -1282.8030483225405C-1439.1972243548212 -2229.829391173911 -600.4622248884898 -2753.762545360568 505.7804719272963 -2861.186983346828C1612.0231687430833 -2968.611421333089 3011.4318840978813 -2769.8831105452755 3288.9997081082292 -1798.4403506565977C3566.5675321185763 -826.99759076792 2540.110738125498 658.9855859512568 1838.1060271769647 1801.7382641188206 "></path><path d="M3238.3155407159447 -1759.8709813048579C3511.0137537787423 -805.4710768528239 2502.5649737153662 654.4422195730344 1812.8761348887383 1777.1466051411671C1123.187296062109 2899.8509907093003 772.0688833083336 3653.098128265856 -72.19088565187667 3629.110069422186C-916.4506546120874 3605.122010578515 -1842.4246647419232 2679.16850953634 -2239.570756120278 1662.0039226915505C-2636.716847498633 644.8393358467615 -2550.053680165387 -322.8681018244379 -1978.4921242679736 -1253.2799474328017C-1406.9305683705602 -2183.6917930411655 -582.9102180176742 -2698.4331375052493 503.92471218731 -2803.972936228593C1590.7596423922932 -2909.5127349519366 2965.617327653147 -2714.270885756892 3238.3155407159447 -1759.8709813048579C3511.0137537787423 -805.4710768528239 2502.5649737153662 654.4422195730344 1812.8761348887383 1777.1466051411671 "></path><path d="M3187.6312817709268 -1721.301886611321C3455.459883886174 -783.94483759593 2465.019117752502 649.8985785366085 1787.6461510477766 1752.5546715053115C1110.2731843430524 2855.2107644740126 765.4247432455941 3595.007060288487 -63.75895841175543 3571.4473596384532C-892.9426600691052 3547.8876589884203 -1802.381420018051 2638.469041893428 -2192.4356169075063 1639.468108385152C-2582.489813796962 640.4671748768765 -2497.374203023239 -309.95977283590855 -1936.0191034811362 -1223.7571212012658C-1374.6640039390338 -2137.554469566623 -565.3583026995921 -2643.1040043081343 502.06886089458885 -2746.759163768561C1569.4960244887689 -2850.414323228988 2919.8026796556796 -2658.658935626712 3187.6312817709268 -1721.301886611321C3455.459883886174 -783.94483759593 2465.019117752502 649.8985785366085 1787.6461510477766 1752.5546715053115 "></path><path d="M3136.947083861065 -1682.733005540831C3399.9060750287617 -762.418811962084 2427.4733228247933 645.3547238771362 1762.416228241972 1727.9625242464072C1097.3591336591517 2810.570324615679 758.7806642180112 3536.9157786880705 -55.32697013647794 3513.7844362316746C-869.4346044909666 3490.6530937752786 -1762.3381142590224 2597.769360627468 -2145.300416659579 1616.9320804557055C-2528.262719060135 636.0948002839446 -2444.694664845934 -297.0516574704261 -1893.5460216591425 -1194.2345085927768C-1342.3973784723512 -2091.4173597151275 -547.8063263463537 -2587.775084734066 500.213070637024 -2689.545604931576C1548.2324676204007 -2791.316125129086 2873.9880926933674 -2603.047199119578 3136.947083861065 -1682.733005540831C3399.9060750287617 -762.418811962084 2427.4733228247933 645.3547238771362 1762.416228241972 1727.9625242464072 "></path><path d="M3086.2629469863587 -1644.1636667066691C3344.3523272065067 -740.8923285645656 2389.9275889322407 640.8113269813362 1737.1863664713237 1703.3708347511765C1084.4451440104071 2765.9303425210164 752.1366462255837 3478.8249548513277 -46.894920826043744 3456.1219705885687C-845.9264878776719 3433.418986325809 -1722.2947474648377 2557.07013712518 -2098.165155376495 1594.396510289932C-2474.035563288152 631.722883454685 -2392.015065633473 -284.1430843412718 -1851.0728788019928 -1164.711438220616C-1310.130691970512 -2045.2797920999606 -530.254288957959 -2532.445707396326 498.3573414146149 -2632.3315883309187C1526.968971787188 -2732.2174692655117 2828.1735667662115 -2547.435004848773 3086.2629469863587 -1644.1636667066691C3344.3523272065067 -740.8923285645656 2389.9275889322407 640.8113269813362 1737.1863664713237 1703.3708347511765 "></path><path d="M3035.5786270061844 -1605.5945109779764C3288.798396278782 -719.3660282725159 2352.3816719342194 636.267746980066 1711.9563215952066 1678.7789621504753C1071.5309712561939 2721.290177320885 745.4924451276884 3420.733947909115 -38.463054621078754 3398.4593218399923C-822.4185543698459 3376.1846957708703 -1682.2515637761217 2516.370730517422 -2051.0300771988796 1571.8607570186887C-2419.808590621638 627.3507835199562 -2339.335649526481 -271.2346943175862 -1808.5999190503114 -1135.188550953924C-1277.8641885741422 -1999.1424075902619 -512.7024346750331 -2477.116513164054 496.5014290867375 -2575.1177548357305C1505.7052928485082 -2673.1189965074063 2782.358857733587 -2491.822993683437 3035.5786270061844 -1605.5945109779764C3288.798396278782 -719.3660282725159 2352.3816719342194 636.267746980066 1711.9563215952066 1678.7789621504753 "></path><path d="M2984.894490131478 -1567.0256299074863C3233.244648456526 -697.8400026386694 2314.835938041667 631.7238923205941 1686.7264598245583 1654.1868148915728C1058.6169816074494 2676.6497374625505 738.8484271352613 3362.6426663086995 -30.03100531064456 3340.7963984332146C-798.9104377565511 3318.9501305577287 -1642.208196981937 2475.671049251463 -2003.8948159157958 1549.3247290892432C-2365.5814348496547 622.9784089270242 -2286.65605031402 -258.3265789521033 -1766.1267761931615 -1105.665938345435C-1245.597502072303 -1953.0052977387663 -495.1503972866385 -2421.7875935899856 494.6456998643289 -2517.9041959987453C1484.4417970152958 -2614.0207984075046 2736.544331806431 -2436.211257176303 2984.894490131478 -1567.0256299074863C3233.244648456526 -697.8400026386694 2314.835938041667 631.7238923205941 1686.7264598245583 1654.1868148915728 "></path><path d="M2934.21023118646 -1528.4562910733243C3177.690778563958 -676.313519241151 2277.290082078802 627.1804954247937 1661.4964759835966 1629.5951253963412C1045.7028698883928 2632.009755367889 732.2042870725222 3304.5518424719558 -21.59907807052332 3283.133932790108C-775.4024432135689 3261.716023108258 -1602.1649522580647 2434.971825749174 -1956.7596767030243 1526.7891589234696C-2311.354401147984 618.6064920977642 -2233.9765731718717 -245.41800582294945 -1723.6537554063243 -1076.1428679732742C-1213.3309376407765 -1906.8677301235994 -477.59848196855637 -2366.4582162522456 492.7898485716073 -2460.6901793980883C1463.1781791117714 -2554.9221425439305 2690.7296838089624 -2380.5990629054977 2934.21023118646 -1528.4562910733243C3177.690778563958 -676.313519241151 2277.290082078802 627.1804954247937 1661.4964759835966 1629.5951253963412 "></path><path d="M2883.525972241441 -1489.8871658622097C3122.1369086713894 -654.7872494666799 2239.744226115936 622.6368849059463 1636.2664921426358 1605.0032222780628C1032.7887581693358 2587.3695596501793 725.5601470097822 3246.460805012166 -13.167150830402079 3225.4712535239532C-751.8944486705866 3204.4817020357423 -1562.1217075341924 2394.272388623839 -1909.6245374902528 1504.2533751346482C-2257.127367446313 614.2343616454577 -2181.2970960297234 -232.509646316842 -1681.1807346194867 -1046.6200112241602C-1181.06437320925 -1860.7303761314788 -460.04656665047446 -2311.129052537552 490.9339972788862 -2403.476376420478C1441.9145612082466 -2495.8237003034037 2644.915035811495 -2324.9870822577395 2883.525972241441 -1489.8871658622097C3122.1369086713894 -654.7872494666799 2239.744226115936 622.6368849059463 1636.2664921426358 1605.0032222780628 "></path><path d="M2832.8417743315804 -1451.3180711686728C3066.583099813978 -633.261010209786 2202.198431188227 618.0932438695204 1611.0365693368312 1580.4112886422063C1019.874707485435 2542.7293334148917 718.9160679821989 3188.3697370347963 -4.735162555124134 3167.8085437402215C-728.3863930924476 3147.2473504456466 -1522.078401775164 2353.572920980926 -1862.4893372423253 1481.7175608282487C-2202.9002727094867 609.8622006755727 -2128.617557852419 -219.6013173283127 -1638.707652797493 -1017.0971849926248C-1148.7977477425675 -1814.5930526569364 -442.4945902972361 -2255.799919340437 489.0782070213213 -2346.2626039604456C1420.651004339879 -2436.7252885804546 2599.1004488491826 -2269.3751321275595 2832.8417743315804 -1451.3180711686728C3066.583099813978 -633.261010209786 2202.198431188227 618.0932438695204 1611.0365693368312 1580.4112886422063 "></path><path d="M2782.1575764217177 -1412.748945957558C3011.029290956566 -611.734740435315 2164.652636260518 613.549633350673 1585.8066465310267 1555.8193855239278C1006.9606568015342 2498.0891376971813 712.2719889546161 3130.2786995750057 3.696825720153356 3110.145864474068C-704.8783375143091 3090.01302937313 -1482.0350960161354 2312.87348385559 -1815.3541369943975 1459.1817770394282C-2148.6731779726597 605.4900702232653 -2075.938019675114 -206.69295782220524 -1596.2345709754995 -987.5743282435108C-1116.5311222758846 -1768.455698664816 -424.9426139439977 -2200.4707556257435 487.222416763756 -2289.0488009828355C1399.3874474715103 -2377.6268463399274 2553.2858618868695 -2213.763151479801 2782.1575764217177 -1412.748945957558C3011.029290956566 -611.734740435315 2164.652636260518 613.549633350673 1585.8066465310267 1555.8193855239278 "></path><path d="M2731.473378511856 -1374.1798207464428C2955.475482099154 -590.2084706608432 2127.1068413328094 609.0060228318257 1560.5767237252217 1531.2274824056494C994.0466061176335 2453.4489419794727 705.6279099270328 3072.187662115215 12.128813995430846 3052.483185207914C-681.3702819361706 3032.7787083006133 -1441.991790257107 2272.174046730256 -1768.2189367464698 1436.6459932506073C-2094.4460832358327 601.1179397709589 -2023.2584814978095 -193.7845983160978 -1553.7614891535059 -958.0514714943968C-1084.2644968092018 -1722.3183446726957 -407.3906375907593 -2145.1415919110505 485.36662650619155 -2231.8349980052253C1378.1238906031422 -2318.5284040994006 2507.471274924558 -2158.151170832042 2731.473378511856 -1374.1798207464428C2955.475482099154 -590.2084706608432 2127.1068413328094 609.0060228318257 1560.5767237252217 1531.2274824056494 "></path><path d="M2680.7891806019934 -1335.610726052906C2899.9216732417417 -568.6822314039503 2089.5610464051006 604.4623817953998 1535.346800919417 1506.6355487697924C981.1325554337332 2408.808715744185 698.983830899449 3014.0965941378463 20.560802270708336 2994.8204754241824C-657.8622263580321 2975.5443567105176 -1401.9484844980786 2231.474579087342 -1721.0837364985423 1414.1101789442077C-2040.218988499006 596.7457788010738 -1970.578943320505 -180.87626932756848 -1511.288407331512 -928.5286452628611C-1051.9978713425191 -1676.1810211981533 -389.83866123752114 -2089.812458713935 483.5108362486267 -2174.6212255451933C1356.860333734774 -2259.4299923764515 2461.656687962246 -2102.539220701862 2680.7891806019934 -1335.610726052906C2899.9216732417417 -568.6822314039503 2089.5610464051006 604.4623817953998 1535.346800919417 1506.6355487697924 "></path><path d="M2630.1049216569754 -1297.041600841791C2844.3678033491733 -547.1559616294785 2052.0151904422364 599.9187712765524 1510.1168170784558 1482.0436456515145C968.2184437146761 2364.1685200264765 692.3396908367099 2956.0055566780547 28.99272951083003 2937.1577961580297C-634.3542318150498 2918.310035638003 -1361.9052397742064 2190.775141962008 -1673.9485972857708 1391.5743951553873C-1985.9919547973352 592.3736483487673 -1917.8994661783565 -167.96790982146103 -1468.8153865446748 -899.0057885137469C-1019.7313069109928 -1630.0436672060328 -372.286745919439 -2034.4832949992417 481.6549849559051 -2117.407422567583C1335.5967158312496 -2200.3315501359248 2415.8420399647775 -2046.9272400541038 2630.1049216569754 -1297.041600841791C2844.3678033491733 -547.1559616294785 2052.0151904422364 599.9187712765524 1510.1168170784558 1482.0436456515145 "></path><path d="M2579.4207237471137 -1258.4724756306764C2788.813994491762 -525.6296918550072 2014.4693955145267 595.3751607577051 1484.8868942726513 1457.451742533236C955.3043930307754 2319.528324308766 685.6956118091266 2897.914519218264 37.424717786107976 2879.495116891874C-610.8461762369113 2861.075714565485 -1321.861934015178 2150.0757048366722 -1626.813397037843 1369.0386113665659C-1931.7648600605085 588.0015178964595 -1865.2199280010518 -155.0595503153536 -1426.342304722681 -869.4829317646331C-987.4646814443099 -1583.9063132139127 -354.73476956620084 -1979.1541312845484 479.7991946983402 -2060.193619589973C1314.333158962881 -2141.2331078953976 2370.0274530024653 -1991.3152594063454 2579.4207237471137 -1258.4724756306764C2788.813994491762 -525.6296918550072 2014.4693955145267 595.3751607577051 1484.8868942726513 1457.451742533236 "></path><path d="M2528.736525837252 -1219.9033504195613C2733.26018563435 -504.10342208053544 1976.9236005868183 590.8315502388582 1459.6569714668467 1432.8598394149576C942.3903423468746 2274.8881285910575 679.0515327815433 2839.8234817584744 45.85670606138547 2821.8324376257215C-587.3381206587728 2803.8413934929695 -1281.8186282561494 2109.376267711338 -1579.6781967899155 1346.5028275777454C-1877.5377653236815 583.629387444153 -1812.5403898237473 -142.15119080924615 -1383.8692229006872 -839.9600750155191C-955.1980559776273 -1537.768959221792 -337.18279321296245 -1923.824967569855 477.94340444077534 -2002.9798166123628C1293.069602094513 -2082.1346656548703 2324.212866040154 -1935.703278758587 2528.736525837252 -1219.9033504195613C2733.26018563435 -504.10342208053544 1976.9236005868183 590.8315502388582 1459.6569714668467 1432.8598394149576 "></path><path d="M2478.052266892233 -1181.3342557260246C2677.7063157417815 -482.5771828236425 1939.3777446239533 586.2879092024318 1434.4269876258854 1408.2679057791006C929.4762306278176 2230.24790235577 672.4073927188037 2781.7324137811047 54.28863330150671 2764.1697278419897C-563.8301261157906 2746.607041902874 -1241.7753835322771 2068.676800068424 -1532.543057577144 1323.9670132713459C-1823.310731622011 579.257226474268 -1759.8609126815988 -129.24286182071683 -1341.39620211385 -810.4372487839835C-922.9314915461009 -1491.6316357472497 -319.6308778948803 -1868.4958343727399 476.0875531480542 -1945.7660441523308C1271.8059841909885 -2023.0362539319215 2278.3982180426856 -1880.0913286284067 2478.052266892233 -1181.3342557260246C2677.7063157417815 -482.5771828236425 1939.3777446239533 586.2879092024318 1434.4269876258854 1408.2679057791006 "></path><path d="M2427.3680689823705 -1142.7651305149097C2622.1525068843694 -461.05091304917073 1901.8319496962445 581.7442986835849 1409.1970648200809 1383.676002660823C916.5621799439173 2185.6077066380612 665.7633136912204 2723.641376321315 62.72062157678465 2706.507048575836C-540.3220705376518 2689.372720830357 -1201.7320777732486 2027.9773629430892 -1485.4078573292163 1301.4312294825254C-1769.0836368851842 574.8850960219611 -1707.1813745042944 -116.33450231460938 -1298.9231202918563 -780.9143920348693C-890.6648660794181 -1445.4942817551294 -302.0789015416419 -1813.1666706580463 474.23176289048934 -1888.5522411747204C1250.5424273226204 -1963.9378116913945 2232.5836310803734 -1824.4793479806483 2427.3680689823705 -1142.7651305149097C2622.1525068843694 -461.05091304917073 1901.8319496962445 581.7442986835849 1409.1970648200809 1383.676002660823 "></path><path d="M2376.6838710725087 -1104.1960053037947C2566.598698026957 -439.52464327469943 1864.2861547685347 577.2006881647376 1383.9671420142759 1359.0840995425442C903.6481292600165 2140.967510920351 659.1192346636371 2665.5503388615243 71.15260985206214 2648.8443693096824C-516.8140149595133 2632.1383997578405 -1161.6887720142201 1987.2779258177543 -1438.2726570812888 1278.895445693704C-1714.8565421483572 570.5129655696542 -1654.5018363269896 -103.42614280850194 -1256.4500384698626 -751.3915352857555C-858.3982406127352 -1399.356927763009 -284.52692518840377 -1757.8375069433532 472.375972632924 -1831.3384381971102C1229.2788704542518 -1904.8393694508675 2186.7690441180603 -1768.86736733289 2376.6838710725087 -1104.1960053037947C2566.598698026957 -439.52464327469943 1864.2861547685347 577.2006881647376 1383.9671420142759 1359.0840995425442 "></path><path d="M2325.999673162647 -1065.6269106102577C2511.044889169545 -417.9984040178058 1826.740359840826 572.6570471283117 1358.7372192084713 1334.4921659066881C890.7340785761157 2096.327284685064 652.4751556360543 2607.4592708841556 79.58459812733986 2591.1816595259506C-493.3059593813748 2574.9040481677457 -1121.6454662551916 1946.5784581748417 -1391.137456833361 1256.3596313873054C-1660.6294474115302 566.1408045997696 -1601.8222981496851 -90.51781381997284 -1213.976956647869 -721.8687090542196C-826.1316151460526 -1353.2196042884666 -266.9749488351654 -1702.5083737462378 470.5201823753596 -1774.1246657370782C1208.015313585884 -1845.7409577279186 2140.954457155749 -1713.2554172027096 2325.999673162647 -1065.6269106102577C2511.044889169545 -417.9984040178058 1826.740359840826 572.6570471283117 1358.7372192084713 1334.4921659066881 "></path><path d="M2275.3155362879415 -1027.0575412585179C2455.49114134729 -396.4718901027097 1789.1946259482734 568.1136807500893 1333.5073574378225 1309.9005069290347C877.8200889273712 2051.6873331079796 645.8311376436272 2549.368477564989 88.01664743777337 2533.519224400421C-469.7978427680798 2517.669971235853 -1081.602099461007 1905.8792651901313 -1344.002195550277 1233.824091739109C-1606.4022916395472 561.7689182880877 -1549.1426989372242 -77.6092101732404 -1171.503813790719 -692.3456081644808C-793.8649286442137 -1307.0820061557213 -249.42291144677074 -1647.1789658909195 468.6644531529505 -1716.910618618843C1186.7518177526717 -1786.6422713467664 2095.139931228593 -1657.6431924143262 2275.3155362879415 -1027.0575412585179C2455.49114134729 -396.4718901027097 1789.1946259482734 568.1136807500893 1333.5073574378225 1309.9005069290347 "></path><path d="M2224.6313383780794 -988.488660188028C2399.937332489878 -374.94586446886296 1751.6488310205646 563.5698260906174 1308.277434632018 1285.3083596701313C864.9060382434704 2007.0468932496456 639.1870586160439 2491.2771959645743 96.44863571305109 2475.8563009936433C-446.2897871899413 2460.4354060227124 -1041.5587937019786 1865.1795839241713 -1296.8669953023496 1211.2880638096635C-1552.1751969027205 557.3965436951557 -1496.4631607599194 -64.70109480775773 -1129.0307319687254 -662.8229955559918C-761.5983031775311 -1260.9448963042257 -231.87093509353258 -1591.8500463168511 466.8086628953856 -1659.6970597818577C1165.4882608843036 -1727.5440732468644 2049.325344266281 -1602.0314559071928 2224.6313383780794 -988.488660188028C2399.937332489878 -374.94586446886296 1751.6488310205646 563.5698260906174 1308.277434632018 1285.3083596701313 "></path><path d="M2173.947140468217 -949.9195654944913C2344.3835236324658 -353.4196252119698 1714.1030360928557 559.0261850541915 1283.0475118262134 1260.7164260342747C851.9919875595701 1962.406667014358 632.5429795884606 2433.1861279872046 104.88062398832881 2418.1935912099107C-422.7817316118028 2403.2010544326167 -1001.51548794295 1824.4801162812578 -1249.7317950544218 1188.7522495032645C-1497.9481021658935 553.0243827252707 -1443.783622582615 -51.792765819228634 -1086.5576501467317 -633.300169324456C-729.3316777108483 -1214.8075728296835 -214.3189587402942 -1536.520913119736 464.9528726378203 -1602.4832873218256C1144.224704015935 -1668.4456615239155 2003.510757303969 -1546.4195057770125 2173.947140468217 -949.9195654944913C2344.3835236324658 -353.4196252119698 1714.1030360928557 559.0261850541915 1283.0475118262134 1260.7164260342747 "></path><path d="M2123.2630646286675 -911.3504402833763C2288.8298368453666 -331.89335543749826 1676.5573632354594 554.4825745353442 1257.8177110907209 1236.1245229159963C839.0780589459819 1917.7664712966484 625.8990226311898 2375.095090527415 113.31273433391902 2360.530911943757C-399.2735539633518 2345.9667333601 -961.472060113609 1783.7806791559228 -1202.5964727361816 1166.2164657144435C-1443.720885358754 548.6522522729642 -1391.1039623349977 -38.88440631312119 -1044.0844462544255 -603.7773125753422C-697.0649301738531 -1168.670218837563 -196.7668603167433 -1481.1917494050426 463.09720445056837 -1545.2694843442155C1122.9612692178798 -1609.3472192833883 1957.6962924119694 -1490.8075251292541 2123.2630646286675 -911.3504402833763C2288.8298368453666 -331.89335543749826 1676.5573632354594 554.4825745353442 1257.8177110907209 1236.1245229159963 "></path><path d="M2072.5787141309156 -872.7813150722613C2233.275875400064 -310.36708566302696 1639.01141571986 549.9389640164964 1232.5876356970257 1211.5326197977179C826.1638556741905 1873.1262755789394 619.2547910157159 2317.0040530676233 121.74457002130589 2302.8682326776034C-375.7656509731037 2288.7324122875834 -921.4289069424713 1743.0812420305879 -1155.4614250761445 1143.6806819256226C-1389.4939432098179 544.2801218206569 -1338.4245767455839 -25.976046807013745 -1001.6115170203224 -574.2544558262282C-664.798457295061 -1122.5328648454426 -179.21503655139577 -1425.8625856903493 461.2412616051124 -1488.0556813666053C1101.6975597616206 -1550.2487770428613 1911.881552861767 -1435.1955444814957 2072.5787141309156 -872.7813150722613C2233.275875400064 -310.36708566302696 1639.01141571986 549.9389640164964 1232.5876356970257 1211.5326197977179 "></path><path d="M2021.8946077737878 -834.2121898611465C2177.7221580953865 -288.8408158885554 1601.4657123448856 545.395353497649 1207.357804443955 1186.94071667944C813.2498965430241 1828.4860798612299 612.610803540867 2258.9130156078327 130.17664984931798 2245.20555341145C-352.257503842231 2231.498091215067 -881.3855096307084 1702.381804905253 -1108.3261332754823 1121.1448981368017C-1335.2667569202567 539.9079913683504 -1285.7449470155448 -13.0676873009063 -959.1383436455943 -544.7315990771144C-632.5317402756439 -1076.3955108533223 -161.662968645423 -1370.533421975656 459.3855629002819 -1430.8418783889952C1080.4340944459868 -1491.1503348023343 1866.0670574521891 -1379.5835638337373 2021.8946077737878 -834.2121898611465C2177.7221580953865 -288.8408158885554 1601.4657123448856 545.395353497649 1207.357804443955 1186.94071667944 "></path><path d="M1971.210257276035 -795.6429730972972C2122.1681966500837 -267.3144545613495 1563.9197648292861 540.851834531536 1182.1277290502599 1162.3489051138954C800.3356932712331 1783.8459756962552 605.9665719253935 2200.822069700777 138.60848553670507 2187.542965698031C-328.7496008519829 2174.263861695285 -841.3423564595705 1661.682459332652 -1061.1910856154454 1098.609205900715C-1281.0398147713204 535.5359524687779 -1233.065561426131 -0.1592362420644804 -916.6654144114914 -515.208650775266C-600.2652673968518 -1030.2580653084674 -144.11114488007524 -1315.204166708228 457.5296200548264 -1373.6279838586506C1059.170384989728 -1432.051801009073 1820.2523179019863 -1323.9714916332446 1971.210257276035 -795.6429730972972C2122.1681966500837 -267.3144545613495 1563.9197648292861 540.851834531536 1182.1277290502599 1162.3489051138954 "></path><path d="M1920.5261814364853 -757.0738478861822C2066.614509862984 -245.788184786878 1526.3740919718898 536.3082240126887 1156.8979283147678 1137.757001995617C787.4217646576444 1739.2057799785457 599.3226149681223 2142.731032240986 147.0405958822953 2129.880286431877C-305.2414232035319 2117.029540622768 -801.2989286302295 1620.983022207317 -1014.0557632972052 1076.0734221118942C-1226.812597964181 531.1638220164714 -1180.3859011785137 12.749123264042964 -874.1922105191851 -485.68579402615205C-567.9985198598565 -984.120711316347 -126.55904645652436 -1259.875002993535 455.6739518675738 -1316.4141808810405C1037.9069501916724 -1372.953358768546 1774.437853009987 -1268.3595109854864 1920.5261814364853 -757.0738478861822C2066.614509862984 -245.788184786878 1526.3740919718898 536.3082240126887 1156.8979283147678 1137.757001995617 "></path><path d="M1869.8418614563107 -718.5047226750673C2011.0605789352599 -224.2619150124067 1488.8281749738685 531.7646134938409 1131.6678834386503 1113.1650988773386C774.5075919034316 1694.5655842608362 592.6784138702267 2084.639994781195 155.4724620872605 2072.217607165723C-281.7334896957059 2059.7952195502507 -761.2557449415135 1580.2835850819815 -966.9206851195901 1053.5376383230732C-1172.5856252976666 526.791691564164 -1127.7064850715215 25.65748277015018 -831.7192507675039 -456.1629372770383C-535.7320164634863 -937.9833573242266 -109.00719217359847 -1204.5458392788414 453.81803953969643 -1259.20037790343C1016.6432712529918 -1313.8549165280187 1728.6231439773624 -1212.7475303377278 1869.8418614563107 -718.5047226750673C2011.0605789352599 -224.2619150124067 1488.8281749738685 531.7646134938409 1131.6678834386503 1113.1650988773386 "></path><path d="M1819.1577550991833 -679.935505911218C1955.506861630582 -202.735553685201 1451.282471598894 527.2210945277284 1106.43805218558 1088.5732873117945C761.5936327722657 1649.925480095861 586.0344263953777 2026.5490488741389 163.9045419152726 2014.555019452304C-258.2253425648328 2002.5609900304685 -721.2123476297506 1539.584239509381 -919.7853933189281 1031.0019460869862C-1118.3584390081055 522.4196526645919 -1075.0268553414826 38.565933828992 -789.2460773927759 -426.6399889751899C-503.46529944406916 -891.8459117793718 -91.45512426762616 -1149.2165840114137 451.9623408348659 -1201.9864833730855C995.3798059373576 -1254.7563827347574 1682.8086485677845 -1157.1354581372352 1819.1577550991833 -679.935505911218C1955.506861630582 -202.735553685201 1451.282471598894 527.2210945277284 1106.43805218558 1088.5732873117945 "></path><path d="M1768.473435119009 -641.366380700103C1899.9529307028574 -181.20928391072948 1413.7365546008732 522.6774840088806 1081.2080073094626 1063.981384193516C748.6794600180524 1605.285284378152 579.3902252974822 1968.4580114143478 172.3364081202376 1956.8923401861498C-234.71740905700676 1945.3266689579518 -681.1691639410346 1498.8848023840465 -872.6503151413128 1008.4661622981653C-1064.131466341591 518.0475222122848 -1022.3474392344904 51.474293335099446 -746.7731176410947 -397.1171322260759C-471.19879604769903 -845.7085577872514 -73.90326998470027 -1093.8874202967204 450.10642850698855 -1144.7726803954754C974.1161269986769 -1195.6579404942304 1636.9939395351603 -1101.5234774894766 1768.473435119009 -641.366380700103C1899.9529307028574 -181.20928391072948 1413.7365546008732 522.6774840088806 1081.2080073094626 1063.981384193516 "></path><path d="M1717.7891761739907 -602.7973775593007C1844.3990608102895 -159.68313620657045 1376.1906986380081 518.1337514197205 1055.9780234685018 1039.3893590049252C735.7653482989954 1560.64496659013 572.7460852347426 1910.366851884245 180.76833536035906 1899.2295388496836C-211.2094145140245 1888.0922258151227 -641.1259192171624 1458.1852431883985 -825.5151759285413 985.9302564390318C-1009.9044326399205 513.6752696896656 -969.6679620923421 64.38253077089439 -704.3000968542573 -367.59439754727464C-438.93223161617266 -799.5713258654434 -56.351354666618136 -1038.5583786523396 448.2505772142672 -1087.5589994881777C952.8525090951525 -1136.5596203240157 1591.1792915376918 -1045.911618912031 1717.7891761739907 -602.7973775593007C1844.3990608102895 -159.68313620657045 1376.1906986380081 518.1337514197205 1055.9780234685018 1039.3893590049252 "></path><path d="M1667.1049782641285 -564.2281607954512C1788.8452519528773 -138.15677487936455 1338.6449037102993 513.5902324536078 1030.7481006626967 1014.7975474393816C722.8512976150948 1516.0048624251554 566.1020062071595 1852.2759059771888 189.20032363563678 1841.5669511362648C-187.701358935886 1830.85799629534 -601.0826134581339 1417.485897615798 -778.3799756806137 963.3945642029457C-955.6773379030935 509.30323079009304 -916.9884239150374 77.29098182973621 -661.8270150322637 -338.07144924542627C-406.6656061494898 -753.4338803205887 -38.79937831337975 -983.2291233849119 446.3947869567021 -1030.345104957833C931.5889522267844 -1077.4610865307543 1545.3647045753796 -990.299546711538 1667.1049782641285 -564.2281607954512C1788.8452519528773 -138.15677487936455 1338.6449037102993 513.5902324536078 1030.7481006626967 1014.7975474393816 "></path><path d="M1616.4209024245793 -525.6590355843364C1733.2915651657781 -116.63050510489302 1301.0992308529026 509.0466219347602 1005.5182999272047 990.2056443211031C709.9373690015066 1471.3646667074458 559.4580492498885 1794.1848685173982 197.632433981227 1783.9042718701107C-164.19318128743475 1773.6236752228233 -561.0391856287929 1376.786460490463 -731.2446533623736 940.8587804141243C-901.4501210959543 504.93110033778635 -864.3087636674204 90.19934133584366 -619.3538111399574 -308.5485924963124C-374.3988586124947 -707.2965263284682 -21.24727988982886 -927.8999596702185 444.5391187694497 -973.1313019802229C910.3255174287287 -1018.3626442902273 1499.5502396833804 -934.6875660637796 1616.4209024245793 -525.6590355843364C1733.2915651657781 -116.63050510489302 1301.0992308529026 509.0466219347602 1005.5182999272047 990.2056443211031 "></path><path d="M1565.7365824444046 -487.0900324435339C1677.7376342380535 -95.10435740073399 1263.5533138548813 504.50288934560035 980.2882550510876 965.6136191325122C697.0231962472933 1426.7243489194238 552.8138481519929 1736.093708987295 206.06430018619199 1726.2414705336446C-140.68524777960874 1716.3892320799941 -520.9960019400769 1336.0869012948156 -684.1095751847583 918.3228745549914C-847.2231484294398 500.5588478151669 -811.6293475604282 103.1075787716386 -576.8808513882764 -279.0258578175109C-342.1323552161243 -661.1592944066604 -3.6954256069029725 -872.5709180258377 442.68320644157234 -915.9176210729252C889.0618384900476 -959.2643241200128 1453.7355306507557 -879.0757074863337 1565.7365824444046 -487.0900324435339C1677.7376342380535 -95.10435740073399 1263.5533138548813 504.50288934560035 980.2882550510876 965.6136191325122 "></path><path d="M1515.0524760872768 -448.52078516210645C1622.1839169333757 -73.57796555595019 1226.0076104799073 499.9594008970653 955.058423798017 941.0218380845463C684.1092371161271 1382.0842752720273 546.169860677144 1678.0027935978164 214.49638001420408 1668.578913337804C-117.17710064873586 1659.1550330777904 -480.95260462831413 1295.387586239793 -636.9742833840963 895.7872128364825C-792.9959621398787 496.18683943317274 -758.9497178303892 116.01606034805855 -534.4076780135483 -249.50287899808438C-309.8656381967073 -615.0218183442273 13.856642299069563 -817.2416322408318 440.8275077367416 -858.7036960250025C867.7983731744139 -900.1657598091732 1407.9210352411778 -823.4636047682628 1515.0524760872768 -448.52078516210645C1622.1839169333757 -73.57796555595019 1226.0076104799073 499.9594008970653 955.058423798017 941.0218380845463 "></path><path d="M1464.3683697301494 -409.9516904685697C1566.6301996286984 -52.05172629905678 1188.4619071049328 495.41575986064004 929.8285925449468 916.4299044486897C671.1952779849607 1337.4440490367397 539.5258732022951 1619.9117256204481 222.92845984221617 1610.9162035540717C-93.66895351786297 1601.9206814876957 -440.90920731655126 1254.68811859688 -589.8389915834343 873.2513985300836C-738.7687758503173 491.81467846328746 -706.2700881003502 128.92438933658786 -491.93450463882016 -219.98005276654862C-277.5989211772902 -568.8844948696851 31.408710205042098 -761.9124990437166 438.9718090319111 -801.4899235649705C846.5349078587799 -841.0673480862242 1362.1065398316005 -767.8516546380826 1464.3683697301494 -409.9516904685697C1566.6301996286984 -52.05172629905678 1188.4619071049328 495.41575986064004 929.8285925449468 916.4299044486897 "></path><path d="M1413.6840497499743 -371.38268732776737C1511.0762687009737 -30.52557859489798 1150.9159901069115 490.87202727147996 904.5985476688295 891.837879260099C658.2811052307477 1292.8037312487181 532.8816721043993 1561.820566090345 231.3603260471814 1553.2534022176055C-70.16102001003685 1544.686238344866 -400.86602362783526 1213.9885594012321 -542.7039134058191 850.7154926709502C-684.541803183803 487.44242594066804 -653.5906719933581 141.8326267723828 -449.4615448871391 -190.45731808774713C-245.33241778091997 -522.7472629478772 48.9605644879681 -706.5834573993357 437.11589670403373 -744.2762426576728C825.2712289200992 -781.9690279160097 1316.2918307989758 -712.2397960606366 1413.6840497499743 -371.38268732776737C1511.0762687009737 -30.52557859489798 1150.9159901069115 490.87202727147996 904.5985476688295 891.837879260099 "></path><path d="M1362.999943392847 -332.8134400463398C1455.522551396296 -8.99918675011395 1113.3702867319364 486.3285388229449 879.3687164157591 867.2460982121331C645.3671460995813 1248.1636576013211 526.2376846295506 1503.7296507008668 239.79240587519325 1495.5908450217644C-46.652872879163965 1487.452039342662 -360.8226263160724 1173.2892443462097 -495.5686216051571 828.1798309524418C-630.3146168942417 483.07041755867385 -600.9110422633191 154.74110834880275 -406.98837151241105 -160.93433926832074C-213.06570076150285 -476.60978688544424 66.51263239394075 -651.2541716143298 435.2601979992032 -687.06231760975C804.0077636044655 -722.8704636051702 1270.477335389398 -656.6276933425657 1362.999943392847 -332.8134400463398C1455.522551396296 -8.99918675011395 1113.3702867319364 486.3285388229449 879.3687164157591 867.2460982121331 "></path><path d="M1312.3157454829852 -294.24434535280307C1399.9687425388843 12.527052506779455 1075.8244918042276 481.78489778651965 854.1387936099543 842.6541645762766C632.4530954156805 1203.523431366034 519.5936056019673 1445.638582723498 248.22439415047074 1437.9281352380326C-23.14481730102534 1430.2176877525671 -320.779320557044 1132.5897767032966 -448.4334213572294 805.6440166460427C-576.0875221574149 478.6982565887888 -548.2315040860144 167.64943733733207 -364.5152896904173 -131.41151303678498C-180.79907529482023 -430.4724634109019 84.06460874717902 -595.9250384172146 433.4044077416381 -629.8485451497179C782.7442067360971 -663.7720518822213 1224.6627484270857 -601.0157432123855 1312.3157454829852 -294.24434535280307C1399.9687425388843 12.527052506779455 1075.8244918042276 481.78489778651965 854.1387936099543 842.6541645762766 "></path><path d="M1261.6315170555445 -255.67515910653196C1344.4149031638945 34.05338331640712 1038.2786663589407 477.2413483028283 828.9088402865714 818.0623224931544C619.5390142142019 1158.8832966834807 512.9494960568059 1387.5476062988637 256.65635190817056 1380.2655170070348C0.3632077595350438 1372.9834277152063 -280.7360453155936 1091.8904006131177 -401.29825162687985 783.108293892378C-521.8604579381661 474.32618717163837 -495.551996426288 180.55785787859577 -322.04223838600177 -101.88859525251485C-148.5324803457156 -384.33504838362524 101.61655458283929 -540.5958136673651 431.5485869664951 -572.6346811369515C761.4806193501508 -604.6735486065379 1178.8481309471956 -545.4037015294708 1261.6315170555445 -255.67515910653196C1344.4149031638945 34.05338331640712 1038.2786663589407 477.2413483028283 828.9088402865714 818.0623224931544 "></path><path d="M1210.9472581105267 -217.106033895417C1288.861033271326 55.57965309087854 1000.7328103960756 472.69773778398076 803.6788564456103 793.4704193748762C606.6249024951449 1114.2431009657712 506.3053559940663 1329.4565688390726 265.0882791482918 1322.6028377408811C23.871202302517304 1315.7491066426896 -240.69280059172138 1051.1909634877827 -354.1631124141084 760.5725101035571C-467.6334242364955 469.95405671933145 -442.87251928413957 193.4662173847032 -279.56921759916435 -72.36573850340096C-116.26591591418912 -338.1976943915049 119.16846990092131 -485.2666499526717 429.69273567377377 -515.4208781593413C740.2170014466262 -545.5751063660109 1133.0334829497274 -489.7917208817125 1210.9472581105267 -217.106033895417C1288.861033271326 55.57965309087854 1000.7328103960756 472.69773778398076 803.6788564456103 793.4704193748762 "></path><path d="M1160.2631212358208 -178.53693920188016C1233.3072854490702 77.10589234777194 963.187076503523 468.1540967475553 778.448994674962 768.8784857390194C593.7109128464003 1069.6028747304838 499.66133800163925 1271.3655008617043 273.52032845872577 1264.9401279571493C47.37931891581218 1258.5147550525949 -200.64943379753663 1010.4914958448694 -307.0278511310245 738.036695797158C-413.4062684645124 465.58189574944663 -390.1929200716787 206.37454637323242 -237.09607474201442 -42.84291227186509C-83.99922941235013 -292.0603709169625 136.72050728931595 -429.9375167555565 427.83700645136514 -458.20710569930924C718.9535056134143 -486.476694643062 1087.2189570225717 -434.1797707515322 1160.2631212358208 -178.53693920188016C1233.3072854490702 77.10589234777194 963.187076503523 468.1540967475553 778.448994674962 768.8784857390194 "></path><path d="M1109.5788012556463 -139.96778347318718C1177.7533545213457 98.63219263982137 925.6411595055017 463.61051674628607 753.2189497988447 744.2866131383191C580.7967400921875 1024.9627095303524 493.01713690374345 1213.2744939194913 281.952194663691 1207.2774792085738C70.8872524236383 1201.280464497656 -160.60625010882063 969.7920892371124 -259.89277295340935 715.500942525915C-359.179295797998 461.20979581471784 -337.5135039646866 219.28293639691788 -194.62311499033325 -13.320025005173079C-51.73272601597989 -245.92298640726403 154.2723615722416 -374.608322523285 425.98109412348776 -400.9932722041209C697.6898266747335 -427.3782218849568 1041.404247989947 -378.5677595861957 1109.5788012556463 -139.96778347318718C1177.7533545213457 98.63219263982137 925.6411595055017 463.61051674628607 753.2189497988447 744.2866131383191 "></path><path d="M1058.8946033457844 -101.39868877965034C1122.1995456639338 120.15843189671477 888.0953645777931 459.06687570986014 727.9890269930399 719.6946795024626C567.8826894082868 980.322483295065 486.3730578761604 1155.1834259421225 290.3841829389686 1149.6147694248418C94.39530800177681 1144.0461129075613 -120.56294434979213 929.0926215941993 -212.75757270548166 692.9651282195159C-304.95220106117114 456.8376348448328 -284.833965787382 232.1912653854472 -152.15003316833958 16.20280122636268C-19.466100549297266 -199.78566293272172 171.82433792548 -319.2791893261698 424.12530386592266 -343.77949974408887C676.4262698063653 -368.2798101620079 995.589661027635 -322.9558094560154 1058.8946033457844 -101.39868877965034C1122.1995456639338 120.15843189671477 888.0953645777931 459.06687570986014 727.9890269930399 719.6946795024626 "></path><path d="M1008.2104359535006 -62.82950253337913C1066.6457673241 141.68476270634255 850.5496001676622 454.52332622616905 702.7591347048133 695.1028374193406C554.9686692419641 935.682348612512 479.7290093661552 1097.0924495174881 298.81620173182444 1091.9521511938444C117.90339409749356 1086.8118528702007 -80.51960807318551 888.3932455040206 -165.62234193997585 670.4294054658512C-250.72507580676614 452.4655654276821 -232.1543970924992 245.0996859267109 -109.67692082876778 45.72571901063293C12.800555434963599 -153.64824790544503 189.3763447962965 -263.9499645763202 422.2695441259358 -286.5656357313224C655.1627434555753 -309.1813068863246 949.7751045829011 -267.34376777310075 1008.2104359535006 -62.82950253337913C1066.6457673241 141.68476270634255 850.5496001676622 454.52332622616905 702.7591347048133 695.1028374193406 "></path><path d="M957.5262380436384 -24.260407839842287C1011.0919584666879 163.21100196323584 813.0038052399536 449.9796851897436 677.5292118990085 670.5109037834841C542.0546185580636 891.0421223772246 473.084930338572 1039.0013815401192 307.24819000710204 1034.2894414101129C141.41144967563207 1029.5775012801062 -40.47630231415707 847.6937778611075 -118.48714169204817 647.8935911594522C-196.49798106993927 448.0934044577973 -179.4748589151946 258.0080149152402 -67.20383900677416 75.2485452421688C45.06718090164634 -107.51092443090272 206.92832114953478 -208.62083137920496 420.4137538683708 -229.3518632712903C633.8991865872069 -250.08289516337567 903.9605176205889 -211.73181764292048 957.5262380436384 -24.260407839842287C1011.0919584666879 163.21100196323584 813.0038052399536 449.9796851897436 677.5292118990085 670.5109037834841 "></path><path d="M906.8420096161981 14.308717371272564C955.5381190916978 184.73727173770726 775.4579797946667 445.43607467089623 652.2992585756256 645.9190006652057C529.1405373565848 846.4019266595153 466.4408207934106 980.9103440803287 315.68014776480163 976.626762143959C164.91947473619257 972.3431802075893 -0.43302707270669316 806.9943407357723 -71.35197196169861 625.3578073706312C-142.27091685069053 443.7212740054903 -126.79535125546812 270.91637442134765 -24.73078770235861 104.77140199128269C77.33377585075095 -61.37357043878234 224.48026698519493 -153.29166766451164 418.5579330932278 -172.1380602936801C612.6355992012604 -190.98445292284862 858.1459001406988 -156.11983699516207 906.8420096161981 14.308717371272564C955.5381190916978 184.73727173770726 775.4579797946667 445.43607467089623 652.2992585756256 645.9190006652057 "></path><path d="M856.1578727414926 52.87778154723128C899.9843712694421 206.26348047702254 737.9122459021137 440.89240311689264 627.0693968049773 621.327036511771C516.2265477078403 801.7616699066498 459.79680280098364 922.8192455853819 324.1121970752354 918.9640218426491C188.42759134948733 915.1087980999164 39.610339721478 766.2948425752811 -24.216710678614675 602.821962546654C-88.04376107870746 439.3490825180272 -74.1157520430072 283.82467289229885 17.742355154791312 134.29419770524032C109.60046235258983 -15.23627748181815 242.03230437358957 -97.9625649849745 416.70220387081906 -114.92431835122619C591.3721033680486 -131.88607171747782 812.3313742135429 -100.50791738255992 856.1578727414926 52.87778154723128C899.9843712694421 206.26348047702254 737.9122459021137 440.89240311689264 627.0693968049773 621.327036511771 "></path><path d="M805.4736137964742 91.44693727592431C844.430501376874 227.78978076907208 700.3663899392486 436.3488231156232 601.8394129640161 596.7351639110709C503.31243598878336 757.1215047065184 453.1526627382441 864.7282386431691 332.54412431535684 861.3013730940734C211.9355858924696 857.8745075449776 79.65358444535025 725.5954359675243 22.918428534156703 580.2862092754114C-33.81672737703684 434.97698258329854 -21.436274900858848 296.7330629159844 60.215375941628736 163.81708497193233C141.86702678411638 30.901107027880357 259.5842196916716 -42.63337075270306 414.8463525780978 -57.71048485603785C570.108485464524 -72.78759895937264 766.5167262160746 -44.8959062172234 805.4736137964742 91.44693727592431C844.430501376874 227.78978076907208 700.3663899392486 436.3488231156232 601.8394129640161 596.7351639110709 "></path><path d="M754.7893853690341 130.01612352219547C788.8766620018837 249.31611157869975 662.8205644939618 431.8052736319321 576.6094596406333 572.1433218279486C490.3983547873047 712.4813700239652 446.50855319308266 806.6372622185347 340.97608207305643 803.638754863076C235.4436109530301 800.640247507617 119.69685968680062 684.8960598773451 70.05359826450626 557.7504865217466C20.410336842211905 430.604913166148 31.243232758867634 309.641483457248 102.68842724604428 193.34000275620247C174.133621733221 77.03852205515705 277.13616552733174 12.695853997146571 412.9905318029548 -0.496620843271387C548.8448980785777 -13.689095683689345 720.7021087361844 10.716135465691252 754.7893853690341 130.01612352219547C788.8766620018837 249.31611157869975 662.8205644939618 431.8052736319321 576.6094596406333 572.1433218279486 "></path><path d="M704.1052179767503 168.58524873331044C733.32288366205 270.8423813531713 625.2748000838311 427.2616631130845 551.3795673524066 547.5514187096703C477.48433462098205 667.841174306256 439.8645046830776 748.5462247587441 349.4081008659123 745.9760755969223C258.9516970487468 743.4059264351004 159.74019596340725 644.1966227520103 117.18882903001207 535.2147027329256C74.6374620966169 426.23278271384106 83.92280145375037 322.54984296335545 145.16153958561608 222.86285950531646C206.4002777174818 123.17587604727748 294.68817239814825 68.0250177118399 411.13477206296784 56.71718213433883C527.5813717277877 45.409346556837704 674.8875522914506 66.3281161134496 704.1052179767503 168.58524873331044C733.32288366205 270.8423813531713 625.2748000838311 427.2616631130845 551.3795673524066 547.5514187096703 "></path><path d="M653.4210200668881 207.15434342684722C677.769074804638 292.36862061006457 587.7290051561224 422.71802207665905 526.1496445466018 522.9594850738138C464.5702839370815 623.2009480709686 433.2204256554944 690.4551567813753 357.8400891411899 688.3133658131904C282.45975262688535 686.1715748450056 199.7835017224357 603.4971551090971 164.32402927793976 512.6788884265266C128.86455683344377 421.860621743956 136.60233963105503 335.45817195188476 187.63462140760976 252.38568573685228C238.66690318416454 169.3131995218198 312.2401487513865 123.35415090895515 409.27898180540296 113.93095459437086C506.3178148594193 104.50775827978663 629.0729653291385 121.94006624362987 653.4210200668881 207.15434342684722C677.769074804638 292.36862061006457 587.7290051561224 422.71802207665905 526.1496445466018 522.9594850738138 "></path><path d="M602.7368068982371 245.72346863796213C622.215250688437 313.89489038453604 550.1831949696243 418.1744115578116 500.919706482008 498.36758195553546C451.6562179943917 578.5607523532592 426.57633136912204 632.3641193215846 366.2720621576784 630.6506865470367C305.9677929462348 628.9372537724888 239.82679222267512 562.7977179837621 211.45921426707838 490.1431046377056C183.09163631148158 417.4884912916493 189.28186254957058 348.3665314579922 230.10768797081437 281.90854248596617C270.9335133920582 215.45055351394018 329.7921098458358 178.68331462364847 407.4231762890489 171.14475757198107C485.0542427322621 163.60620052031368 583.2583631080373 177.55204689138827 602.7368068982371 245.72346863796213C622.215250688437 313.89489038453604 550.1831949696243 418.1744115578116 500.919706482008 498.36758195553546 "></path><path d="M552.0526242471642 284.2925938490771C566.6614570898141 335.4211601590075 512.6374153007046 413.63080103896414 475.6897989349924 473.77567883725703C438.7421825692801 533.9205566355499 419.9322676003278 574.2730818617939 374.7040656917452 572.988007280883C329.4758637831625 571.702932699972 279.8701132404927 522.098280858427 258.5944297737951 467.6073208488847C237.3187463070975 413.1163608393424 241.96141598566425 361.2748909640996 272.5807850515971 311.4313992350801C303.20015411752996 261.5879075060606 347.3441014578632 234.01247833834185 405.567401290273 228.3585605495913C463.7907011226829 222.70464276084073 537.4437914045143 233.16402753914667 552.0526242471642 284.2925938490771C566.6614570898141 335.4211601590075 512.6374153007046 413.63080103896414 475.6897989349924 473.77567883725703 "></path><path d="M501.36842633730214 322.8617495777701C511.1076482324021 356.94746045105705 475.09162037299575 409.08722103769486 450.4598761291876 449.1838062365568C425.82813188537943 489.28039143541866 413.2881885727446 516.1820749195813 383.1360539670228 515.3253585323074C352.983919361301 514.4686421450335 319.9134189995212 481.39887425067013 305.72963002172276 445.0715675776419C291.5458410439244 408.7442609046137 294.64095416296885 374.18328098778517 315.0538668735908 340.9542865017722C335.4667795842127 307.7252920157592 364.89607781110146 289.3416725706133 403.71161103270805 285.5723940447796C442.52714425431463 281.8031155189459 491.6292044422023 288.7760387044832 501.36842633730214 322.8617495777701C511.1076482324021 356.94746045105705 475.09162037299575 409.08722103769486 450.4598761291876 449.1838062365568 "></path><path d="M450.684197909862 361.43085953009603C455.553808857412 378.47371496673946 437.5457949277088 404.5435952600584 425.22992280580473 424.59188785948936C412.91405068390065 444.64018045892027 406.64407902758325 458.0910222010016 391.56801172472234 457.66266400736464C376.49194442186143 457.2343058137277 359.9566942409715 440.699421866546 352.8647997520723 422.5357685300319C345.77290526317313 404.3721151935178 347.3204618226954 387.0916252351035 357.5269181780063 370.477127992097C367.73337453331726 353.8626307490905 382.44802364676167 344.6708210265176 401.855790257565 342.7861817636007C421.26355686836825 340.9015425006839 445.8145869623121 344.38800409345254 450.684197909862 361.43085953009603C455.553808857412 378.47371496673946 437.5457949277088 404.5435952600584 425.22992280580473 424.59188785948936 "></path></g></svg>